<?xml version="1.0" encoding="UTF-8"?>
<!DOCTYPE svg PUBLIC "-//W3C//DTD SVG 1.1//EN" "http://www.w3.org/Graphics/SVG/1.1/DTD/svg11.dtd">
<!-- Creator: CorelDRAW 2019 (64-Bit) -->
<svg xmlns="http://www.w3.org/2000/svg" xml:space="preserve" width="100mm" height="40mm" version="1.1" style="shape-rendering:geometricPrecision; text-rendering:geometricPrecision; image-rendering:optimizeQuality; fill-rule:evenodd; clip-rule:evenodd"
viewBox="0 0 10000 4000"
 xmlns:xlink="http://www.w3.org/1999/xlink"
 xmlns:xodm="http://www.corel.com/coreldraw/odm/2003">
 <defs>
  <style type="text/css">
   <![CDATA[
    .fil0 {fill:#005b1f}
    .fil1 {fill:#005b1f;fill-rule:nonzero}
   ]]>
  </style>
 </defs>
 <g id="Layer_x0020_1">
  <metadata id="CorelCorpID_0Corel-Layer"/>
  <path class="fil0" d="M2584.83 1247.4l1425.87 1943.33 -261.49 0 -290.46 0 -290.46 0 -290.46 0 -293 -389.05 -293 389.05 -290.46 0 -290.46 0 -290.47 0 -261.49 0 1425.88 -1943.33zm0 1458.45l583.46 484.88 -583.46 -861.35 -583.46 861.35 583.46 -484.88zm0 -486.79l873.92 971.67 -873.92 -1346.23 -873.92 1346.23 873.92 -971.67zm0 -484.87l1164.38 1456.54 -1164.38 -1861.99 -1164.39 1861.99 1164.39 -1456.54z"/>
  <g id="_2837308248480">
   <path class="fil1" d="M5059.21 1739.02c0,-59.16 11.16,-99.58 33.26,-121.27 22.11,-21.68 64.85,-32.63 128.22,-32.63l479.8 0c63.58,0 106.53,10.95 128.64,32.63 22.31,21.69 33.47,62.11 33.47,121.27l0 343.8c0,59.58 -11.16,100.21 -33.47,121.69 -22.11,21.68 -65.06,32.42 -128.64,32.42l-479.8 0c-63.37,0 -106.11,-10.74 -128.22,-32.42 -22.1,-21.48 -33.26,-62.11 -33.26,-121.69l0 -343.8zm151.58 375.38l500.23 0 0 -413.07 -500.23 0 0 413.07zm970.14 122.53l0 -651.81 122.53 0 307.38 394.12 300.01 -394.12 121.48 0 0 651.81 -140.22 0 0 -402.75c0,-7.79 0.42,-17.69 1.47,-29.47 1.06,-12.01 2.53,-25.27 4,-40.22 -8.21,16.85 -15.36,30.74 -21.47,41.69 -6.32,10.95 -11.79,19.79 -16.63,26.74l-245.06 325.69 -30.11 0 -245.69 -326.75c-9.05,-12.42 -16.84,-24 -23.16,-34.94 -6.32,-10.95 -11.58,-21.48 -15.79,-31.8 1.26,13.69 2.32,25.9 2.95,37.06 0.63,11.16 0.84,21.68 0.84,32l0 402.75 -122.53 0zm1337.51 -260.22l285.91 0 -140.85 -265.27 -145.06 265.27zm-291.79 260.22l369.06 -651.81 146.32 0 373.91 651.81 -170.32 0 -78.32 -142.74 -413.49 0 -76 142.74 -151.16 0zm1250.57 -122.53l196.21 0c104.43,0 178.54,-16.21 222.12,-48.84 43.58,-32.43 65.47,-86.11 65.47,-161.06 0,-66.74 -18.1,-117.27 -54.32,-151.59 -36.21,-34.31 -89.68,-51.58 -160.42,-51.58l-269.06 0 0 413.07zm-151.59 122.53l0 -651.81 419.38 0c119.8,0 211.8,28 276.01,83.79 64.43,56 96.64,135.37 96.64,238.11 0,60.85 -12.63,115.59 -37.69,164.43 -25.05,48.63 -60.42,86.95 -106.11,114.95 -28.42,17.69 -63.58,30.53 -105.68,38.53 -42.32,8 -96.22,12 -162.11,12l-380.44 0z"/>
   <path class="fil1" d="M5355.26 2534.87l-252.43 0 0 82.9 240.36 0c37.84,0 63.23,6.47 76.55,19.29 13.32,12.94 19.91,36.84 19.91,71.94l0 53.03c0,34.85 -6.59,58.88 -19.91,71.7 -13.32,12.82 -38.71,19.29 -76.55,19.29l-238.12 0c-37.72,0 -63.23,-6.47 -76.43,-19.29 -13.32,-12.82 -19.91,-36.85 -19.91,-71.7l0 -10.58 79.16 -16.43 0 45.56 272.6 0 0 -88.13 -240.48 0c-37.47,0 -62.74,-6.47 -75.93,-19.29 -13.07,-12.82 -19.67,-36.72 -19.67,-71.7l0 -42.69c0,-34.98 6.6,-58.88 19.67,-71.83 13.19,-12.82 38.46,-19.29 75.93,-19.29l218.82 0c36.22,0 61.24,6.22 74.93,18.55 13.82,12.44 20.67,34.35 20.67,65.97l0 8.09 -79.17 18.67 0 -44.06zm359.97 -67.22l0 312.93 255.42 0 0 -312.93 89.62 0 0 294.38c0,35.1 -6.59,59.12 -19.79,71.82 -13.07,12.82 -38.46,19.17 -76.05,19.17l-243.35 0c-37.21,0 -62.36,-6.35 -75.55,-19.17 -13.32,-12.7 -19.92,-36.72 -19.92,-71.82l0 -294.38 89.62 0zm903.8 68.71l-280.06 0 0 244.22 280.06 0 0 -85.89 -146.38 0 0 -65.72 233.76 0 0 132.94c0,35.22 -6.59,59.24 -19.79,71.94 -13.07,12.82 -38.46,19.17 -75.93,19.17l-265.87 0c-37.47,0 -62.74,-6.35 -75.81,-19.17 -13.07,-12.7 -19.66,-36.72 -19.66,-71.94l0 -203.14c0,-34.98 6.59,-58.88 19.66,-71.83 13.07,-12.82 38.34,-19.29 75.81,-19.29l265.87 0c36.97,0 62.24,6.35 75.68,18.92 13.32,12.7 20.04,35.48 20.04,68.46l0 8.84 -87.38 15.81 0 -43.32zm328.61 -68.71l12.45 0c6.72,0 11.45,1.99 14.19,5.85 2.62,3.86 3.99,11.08 3.99,21.78l0 76.93 -73.94 110.53 -43.94 0 63.23 -113.52 -42.57 0c-6.47,0 -11.08,-1.99 -13.81,-5.85 -2.62,-3.86 -3.99,-11.08 -3.99,-21.78l0 -46.31c0,-11.57 1.37,-19.17 4.23,-22.53 2.74,-3.36 11.58,-5.1 26.39,-5.1l53.77 0zm285.29 0l0 312.93 255.42 0 0 -312.93 89.62 0 0 294.38c0,35.1 -6.59,59.12 -19.79,71.82 -13.07,12.82 -38.46,19.17 -76.05,19.17l-243.35 0c-37.21,0 -62.36,-6.35 -75.55,-19.17 -13.32,-12.7 -19.92,-36.72 -19.92,-71.82l0 -294.38 89.62 0zm831.98 66.47l-201.52 0 0 107.54 201.52 0c15.56,0 26.14,-2.24 31.87,-6.72 5.72,-4.6 8.59,-12.57 8.59,-24.02l0 -46.43c0,-11.2 -2.87,-19.04 -8.59,-23.65 -5.73,-4.48 -16.31,-6.72 -31.87,-6.72zm-289.65 318.9l0 -385.37 329.36 0c30.74,0 53.02,5.85 66.72,17.68 13.81,11.7 20.66,30.62 20.66,56.88l0 90.62c0,26.01 -6.85,44.93 -20.66,56.76 -13.7,11.82 -35.98,17.8 -66.72,17.8l-50.29 0 178.12 145.63 -128.7 0 -155.34 -145.63 -85.02 0 0 145.63 -88.13 0zm765.01 -316.66l0 316.66 -89.62 0 0 -316.66 -177 0 0 -68.71 444.37 0 0 68.71 -177.75 0zm335.46 162.81l169.03 0 -83.27 -156.84 -85.76 156.84zm-172.52 153.85l218.2 -385.37 86.51 0 221.06 385.37 -100.7 0 -46.3 -84.39 -244.47 0 -44.93 84.39 -89.37 0z"/>
  </g>
  <polygon class="fil0" points="4363.19,1247.4 4435.24,1247.4 4435.24,3190.73 4363.19,3190.73 "/>
 </g>
</svg>
